HIERARCHY
ROOT hip
{
	OFFSET 0.000000 0.000000 0.000000 
	CHANNELS 6 Xposition Yposition Zposition Zrotation Xrotation Yrotation
	JOINT abdomen
	{
		OFFSET 0.000000 3.402643 0.000000 
		CHANNELS 3 Zrotation Xrotation Yrotation
		JOINT chest
		{
			OFFSET 0.000000 8.438565 -0.680529 
			CHANNELS 3 Zrotation Xrotation Yrotation
			JOINT neck
			{
				OFFSET 0.000000 10.207942 -0.272212 
				CHANNELS 3 Zrotation Xrotation Yrotation
				JOINT head
				{
					OFFSET 0.000000 3.130431 0.000000 
					CHANNELS 3 Zrotation Xrotation Yrotation
					End Site
					{
						OFFSET 0.000000 3.130435 0.000000 
					}
				}
			}
			JOINT lCollar
			{
				OFFSET 3.470700 6.669187 -0.816635 
				CHANNELS 3 Zrotation Xrotation Yrotation
				JOINT lShldr
				{
					OFFSET 3.198488 0.000000 0.000000 
					CHANNELS 3 Zrotation Xrotation Yrotation
					JOINT lForeArm
					{
						OFFSET 10.139888 0.000000 0.000000 
						CHANNELS 3 Zrotation Xrotation Yrotation
						JOINT lHand
						{
							OFFSET 8.370511 0.000000 0.000000 
							CHANNELS 3 Zrotation Xrotation Yrotation
							End Site
							{
								OFFSET 4.083176 0.000000 0.000000 
							}
						}
					}
				}
			}
			JOINT rCollar
			{
				OFFSET -3.470700 6.669187 -0.816635 
				CHANNELS 3 Zrotation Xrotation Yrotation
				JOINT rShldr
				{
					OFFSET -3.198488 0.000000 0.000000 
					CHANNELS 3 Zrotation Xrotation Yrotation
					JOINT rForeArm
					{
						OFFSET -10.139888 0.000000 0.000000 
						CHANNELS 3 Zrotation Xrotation Yrotation
						JOINT rHand
						{
							OFFSET -8.370511 0.000000 0.000000 
							CHANNELS 3 Zrotation Xrotation Yrotation
							End Site
							{
								OFFSET -4.083176 0.000000 0.000000 
							}
						}
					}
				}
			}
		}
	}
	JOINT lThigh
	{
		OFFSET 5.308129 -1.633274 1.361059 
		CHANNELS 3 Zrotation Xrotation Yrotation
		JOINT lShin
		{
			OFFSET -2.041588 -20.007561 0.000000 
			CHANNELS 3 Zrotation Xrotation Yrotation
			JOINT lFoot
			{
				OFFSET 0.000000 -19.190928 -1.224953 
				CHANNELS 3 Zrotation Xrotation Yrotation
				End Site
				{
					OFFSET 0.000000 -2.449906 4.627600 
				}
			}
		}
	}
	JOINT rThigh
	{
		OFFSET -5.308129 -1.633274 1.361059 
		CHANNELS 3 Zrotation Xrotation Yrotation
		JOINT rShin
		{
			OFFSET 2.041588 -20.007561 0.000000 
			CHANNELS 3 Zrotation Xrotation Yrotation
			JOINT rFoot
			{
				OFFSET 0.000000 -19.190928 -1.224953 
				CHANNELS 3 Zrotation Xrotation Yrotation
				End Site
				{
					OFFSET 0.000000 -2.449906 4.627600 
				}
			}
		}
	}
}
MOTION
Frames: 16
Frame Time: 0.033333
0.177832 51.076694 -2.129147 -0.931112 -4.882196 -2.745267 -0.000000 -0.000002 -0.000000 1.292325 4.071236 -13.216549 -4.272274 7.226164 14.863829 -0.954937 -15.993991 -0.145955 -2.000757 -0.069240 1.990978 -5.632802 -85.973328 -27.771208 1.107716 10.767815 -13.837462 -20.821571 8.144082 -0.542558 1.990970 -0.069577 -2.000746 71.711113 9.330557 5.690769 -4.423381 14.353299 18.952374 21.168901 -7.688628 3.695383 9.610372 -3.407827 13.981231 -3.091344 19.515821 1.122393 -3.239314 -8.341540 -5.142733 -5.059354 2.285308 2.235157 4.046318 14.264515 1.865912 -3.716641 -17.024689 -12.515560 
0.201948 51.073120 -2.157782 -0.941067 -4.989583 -2.757797 -0.000000 -0.000002 -0.000000 2.232112 4.039912 -13.067492 -3.683199 7.416461 14.840688 -0.954937 -15.993991 -0.145955 -2.000757 -0.069240 1.990978 -16.964804 -83.696648 -43.642212 1.585822 10.648639 -18.503626 -20.820072 8.153924 -0.552447 1.990970 -0.069577 -2.000746 70.790306 9.068187 5.686538 -4.425086 14.342559 18.971659 21.168901 -7.688628 3.695383 9.571357 -3.552123 14.008307 -3.188904 19.896017 1.127107 -3.048426 -8.461823 -5.137671 -5.234342 2.283805 2.247380 4.030186 14.461460 1.868627 -3.493231 -17.113615 -12.448770 
0.230650 51.067852 -2.191742 -0.960816 -5.087192 -2.770752 -0.000000 -0.000002 -0.000000 3.220773 4.007354 -12.940159 -3.064237 7.625926 14.830333 -0.954937 -15.993991 -0.145955 -2.000757 -0.069240 1.990978 -18.566147 -80.326988 -51.894905 2.265248 10.407278 -25.354465 -20.818678 8.153818 -0.562311 1.990970 -0.069577 -2.000746 69.853600 8.815022 5.652924 -4.430040 14.340986 18.991753 21.178034 -7.678880 3.695318 9.298197 -3.468432 13.987932 -3.236315 20.195993 1.152521 -2.718803 -8.835050 -5.052029 -5.431519 2.255399 2.265509 4.053653 14.646345 1.904607 -3.288198 -17.171173 -12.442048 
0.263322 51.061066 -2.230252 -0.970709 -5.145748 -2.782548 -0.000000 -0.000002 -0.000000 4.160362 3.964171 -12.807656 -2.454508 7.824927 14.855545 -0.954937 -15.993991 -0.145955 -2.000757 -0.069240 1.990978 -15.696917 -76.249283 -57.260136 3.050725 10.008280 -33.682907 -20.817274 8.153804 -0.572175 1.990970 -0.069577 -2.000746 68.957970 8.583584 5.590155 -4.428302 14.341790 19.022152 21.180027 -7.689165 3.705247 9.193929 -3.614614 13.988721 -3.332649 20.597563 1.196926 -2.483389 -9.083356 -5.028319 -5.615521 2.253581 2.306814 4.058069 14.817217 1.904026 -3.091151 -17.197901 -12.401065 
0.299403 51.052773 -2.272592 -0.980621 -5.214083 -2.784437 -0.000000 -0.000002 -0.000000 4.972489 3.901324 -12.712212 -1.913310 8.032683 14.886601 -0.954937 -15.993991 -0.145955 -2.000757 -0.069240 1.990978 -11.123655 -71.837143 -61.813000 3.823507 9.441591 -42.761871 -20.815781 8.163538 -0.582063 1.990970 -0.069577 -2.000746 68.183449 8.380982 5.478604 -4.444997 14.336517 19.052061 21.189161 -7.679420 3.705153 9.089576 -3.721964 14.022944 -3.388114 20.934517 1.185264 -2.265918 -9.278573 -5.002605 -5.794229 2.235063 2.315990 4.067815 14.926243 1.893630 -2.892875 -17.228174 -12.374502 
0.338275 51.042847 -2.317999 -0.990519 -5.272663 -2.796280 -0.000000 -0.000002 -0.000000 5.588689 3.829419 -12.639108 -1.509616 8.210075 14.961464 -0.954937 -15.993991 -0.145955 -2.000757 -0.069240 1.990978 -5.936240 -67.355186 -65.898293 4.515522 8.771306 -51.887268 -20.815781 8.163538 -0.582063 1.990970 -0.069577 -2.000746 67.622749 8.255809 5.318950 -4.449975 14.335003 19.072147 21.189161 -7.679420 3.705153 8.978798 -3.847733 14.019295 -3.451286 21.252583 1.234657 -2.118094 -9.433975 -4.955054 -5.955829 2.154732 2.368932 4.092165 15.102219 1.880516 -2.768465 -17.302799 -12.365361 
0.379378 51.031330 -2.365754 -0.990457 -5.233594 -2.785668 -0.000000 -0.000002 -0.000000 5.950279 3.749282 -12.606278 -1.243740 8.376953 15.044293 -0.954937 -15.993991 -0.145955 -2.000757 -0.069240 1.990978 -0.856461 -63.071251 -69.485664 5.050872 8.044552 -60.369629 -20.814375 8.163535 -0.591927 1.990970 -0.069577 -2.000746 67.327690 8.210108 5.091379 -4.454926 14.333420 19.092249 21.200197 -7.678711 3.715011 8.930859 -3.992523 14.034737 -3.510887 21.510805 1.254355 -1.959501 -9.567539 -4.928262 -6.071796 1.989411 2.372650 4.136959 15.262094 1.883457 -2.739038 -17.405632 -12.349083 
0.422090 51.018108 -2.415082 -0.980591 -5.194555 -2.784102 -0.000000 -0.000002 -0.000000 5.890470 3.584542 -12.634202 -1.174940 8.474803 15.163419 -0.954937 -15.993991 -0.145955 -2.000757 -0.069240 1.990978 3.629486 -59.170071 -72.214027 5.397289 7.374892 -67.496666 -20.812853 8.173283 -0.601817 1.990970 -0.069577 -2.000746 67.349297 8.243842 4.785896 -4.444997 14.336517 19.052061 21.199558 -7.668966 3.714927 8.999010 -4.068594 14.082200 -3.543822 21.742134 1.230094 -1.894048 -9.666409 -4.910743 -6.259729 1.834226 2.354429 4.209370 15.374933 1.862992 -2.684035 -17.387589 -12.361256 
0.465857 51.002388 -2.465275 -0.970724 -5.155511 -2.782714 -0.000000 -0.000002 -0.000000 5.840512 3.419699 -12.664041 -1.155252 8.494389 15.356020 -0.954937 -15.993991 -0.145955 -2.000757 -0.069240 1.990978 6.787877 -55.805027 -73.764320 5.608870 6.874841 -72.595329 -20.811476 8.173353 -0.611680 1.990970 -0.069577 -2.000746 67.554405 8.404392 4.363353 -4.438304 14.348704 19.012669 21.199558 -7.668966 3.714927 9.083087 -4.146236 14.073153 -3.594165 21.924385 1.297570 -1.825827 -9.745989 -4.886930 -6.173138 1.854463 2.428952 4.301824 15.441813 1.839077 -2.688703 -17.437550 -12.358274 
0.510056 50.984707 -2.515568 -0.970665 -5.116455 -2.782050 -0.000000 -0.000002 -0.000000 5.564813 3.100580 -12.751970 -1.145204 8.435832 15.587952 -0.954937 -15.993991 -0.145955 -2.000757 -0.069240 1.990978 8.093063 -53.192329 -73.673752 5.674372 6.638852 -74.965309 -20.811476 8.173353 -0.611680 1.990970 -0.069577 -2.000746 67.901230 8.643130 3.822777 -4.425086 14.342559 18.971659 21.199558 -7.668966 3.714927 8.945604 -4.378369 14.061647 -3.629125 22.076925 1.294557 -1.825974 -9.815848 -4.927006 -6.280235 1.679622 2.411510 4.396802 15.588829 1.814454 -2.743674 -17.497175 -12.378275 
0.554112 50.965691 -2.565210 -0.960801 -5.077425 -2.770750 -0.000000 -0.000002 -0.000000 5.152194 2.694169 -12.878674 -1.164570 8.308852 15.861672 -0.954937 -15.993991 -0.145955 -2.000757 -0.069240 1.990978 7.434277 -52.250755 -70.805984 5.636589 6.755555 -73.770027 -20.809952 8.183017 -0.621569 1.990970 -0.069577 -2.000746 68.347633 8.971104 3.203289 -4.415128 14.345574 18.931459 21.209366 -7.669590 3.714920 8.981702 -4.504755 14.044635 -3.643143 22.204098 1.316180 -1.838998 -9.891648 -4.949681 -6.309111 1.581933 2.408442 4.469108 15.681023 1.793651 -2.787416 -17.575932 -12.371454 
0.597454 50.946045 -2.613504 -0.950955 -5.048150 -2.769232 -0.000000 -0.000002 -0.000000 4.671636 2.267836 -13.027068 -1.213436 8.152492 16.168196 -0.954937 -15.993991 -0.145955 -2.000757 -0.069240 1.990978 5.356396 -53.197594 -64.798141 5.483747 7.207615 -69.240349 -20.808552 8.182999 -0.631433 1.990970 -0.069577 -2.000746 68.915817 9.239860 2.493309 -4.388485 14.363800 18.811655 21.209366 -7.669590 3.714920 9.031350 -4.619658 14.056662 -3.679701 22.346848 1.322934 -1.881076 -9.963038 -4.947007 -6.319299 1.436797 2.417799 4.574059 15.835776 1.747672 -2.893852 -17.687105 -12.426368 
0.639460 50.926399 -2.659653 -0.931126 -4.891961 -2.745427 -0.000000 -0.000002 -0.000000 4.113387 1.811731 -13.196677 -1.281936 7.976542 16.486513 -0.954937 -15.993991 -0.145955 -2.000757 -0.069240 1.990978 2.477581 -55.311630 -56.304424 5.156742 7.862832 -62.291939 -20.807146 8.182983 -0.641297 1.990970 -0.069577 -2.000746 69.570541 9.556101 1.762749 -4.357792 14.362679 18.700279 21.209366 -7.669590 3.714920 9.100209 -4.801078 14.070537 -3.699086 22.442787 1.326417 -1.902985 -10.049226 -4.943881 -6.316787 1.329749 2.424869 4.637873 15.898646 1.757265 -3.000917 -17.758253 -12.447013 
0.679570 50.907558 -2.702948 -0.901529 -4.745523 -2.740759 -0.000000 -0.000002 -0.000000 3.506855 1.364628 -13.374639 -1.379991 7.810255 16.808432 -0.954937 -15.993991 -0.145955 -2.000757 -0.069240 1.990978 -0.734495 -57.903297 -46.071815 4.651742 8.601558 -53.855621 -20.807028 8.192745 -0.641292 1.990970 -0.069577 -2.000746 70.262512 9.881417 1.030921 -4.315409 14.375304 18.529409 21.219810 -7.659761 3.724698 9.142838 -4.964794 14.089166 -3.701732 22.531111 1.316754 -1.978221 -10.099402 -4.973522 -6.288546 1.194255 2.417664 4.697900 15.903295 1.708360 -3.122257 -17.775764 -12.509398 
0.717166 50.890053 -2.742626 -0.871889 -4.550282 -2.705894 -0.000000 -0.000002 -0.000000 2.861726 0.955837 -13.553151 -1.517427 7.653595 17.125971 -0.954937 -15.993991 -0.145955 -2.000757 -0.069240 1.990978 -4.024065 -60.206676 -34.963360 3.995956 9.296514 -44.837578 -20.805618 8.192727 -0.651157 1.990970 -0.069577 -2.000746 71.002792 10.224432 0.347312 -4.262942 14.390568 18.318281 21.219810 -7.659761 3.724698 9.187865 -5.167644 14.073152 -3.715453 22.599298 1.348510 -2.034724 -10.163938 -4.980143 -6.280108 0.999856 2.422636 4.758363 15.927063 1.689300 -3.211208 -17.808922 -12.539809 
0.751688 50.874428 -2.777946 -0.832439 -4.315965 -2.689604 -0.000000 -0.000002 -0.000000 2.226687 0.605016 -13.734463 -1.684514 7.545603 17.437777 -0.954937 -15.993991 -0.145955 -2.000757 -0.069240 1.990978 -7.922109 -61.402294 -24.447741 3.276358 9.860432 -36.199715 -20.804214 8.192821 -0.661021 1.990970 -0.069577 -2.000746 71.761757 10.556512 -0.288079 -4.206062 14.417154 18.077745 21.219810 -7.659761 3.724698 9.235314 -5.415867 14.086257 -3.729823 22.646542 1.351264 -2.100163 -10.158669 -5.013672 -6.252478 0.756612 2.393857 4.862321 15.968567 1.662567 -3.340799 -17.825500 -12.579810 
